<?xml version="1.0" encoding="UTF-8"?>
<svg width="620px" height="484px" viewBox="0 0 620 484" version="1.1" xmlns="http://www.w3.org/2000/svg" xmlns:xlink="http://www.w3.org/1999/xlink">
    <title>Calendar</title>
    <g id="Przewodnik" stroke="none" stroke-width="1" fill="none" fill-rule="evenodd">
        <g id="Group-2" transform="translate(-351.000000, -1148.000000)" fill-rule="nonzero">
            <g id="Card---Calendar" transform="translate(202.000000, 1034.000000)">
                <g id="image" transform="translate(1.000000, 0.000000)">
                    <g id="Calendar" transform="translate(148.706415, 114.992099)">
                        <path d="M410.256225,342.38742 C407.842001,350.839728 402.159564,357.986167 394.461996,362.250813 C386.979496,366.539132 378.518765,368.802951 370.297733,371.209067 C346.941105,378.039332 323.327502,383.800212 299.456925,388.491707 C250.418906,397.996029 200.83425,404.433491 150.99247,407.766507 C128.55145,409.286499 105.773555,409.997985 83.3001423,408.607354 C74.1138354,408.038165 64.2213878,406.809235 56.207663,401.945258 C49.3082153,397.75396 45.3369839,390.419187 42.6031182,383.045605 C36.772599,367.147129 35.2696207,349.786873 32.5163199,333.170443 C28.3831297,308.184352 25.6363073,282.984814 23.6344957,257.740001 C21.6326841,232.495187 20.0454872,206.985183 19.9807036,181.5722 C19.9353552,164.211944 18.8275565,143.52064 30.6959023,129.32973 C33.8696936,125.624119 37.6506406,122.483443 41.8775425,120.041605 C44.3198822,118.586293 42.0978065,114.763673 39.6425101,116.225453 C31.622307,121.057089 25.0597337,127.745057 21.2310261,136.366973 C17.6225825,144.503784 16.3981735,153.39089 15.9187753,162.239187 C14.5842342,186.8566 16.1131259,211.745671 17.7003228,236.317807 C19.3976517,262.610445 21.7298594,288.877211 25.338303,314.988744 C26.873673,326.029712 28.8625279,337.025403 30.5469001,348.085775 C31.8425711,356.623606 33.138242,365.174373 35.1789237,373.563439 C37.174257,381.719654 39.8886876,390.128124 44.7992804,397.081282 C49.7098733,404.03444 56.8814119,408.076973 65.0376605,410.327856 C74.2563592,412.837461 83.9803696,413.225544 93.4841159,413.380777 C105.371897,413.581287 117.253199,413.70418 129.115067,413.303161 C155.611537,412.417037 182.017311,409.706923 208.332388,406.660469 C233.908932,403.704569 259.427171,400.192416 284.776973,395.697118 C310.30169,391.169481 335.664449,385.626359 360.62555,378.602052 C377.138876,373.95799 397.869611,370.238859 408.70142,355.64693 C411.34138,351.993108 413.315124,347.903006 414.531939,343.564605 C415.335255,340.835087 411.072497,339.683773 410.262703,342.38742 L410.256225,342.38742 Z" id="Path" fill="#112870"></path>
                        <path d="M413.080073,330.949943 C401.042203,347.548553 95.6475232,385.691692 77.4937431,365.085851 C59.3399631,344.480011 36.6671331,146.973387 51.7241679,117.284922 C66.7812027,87.5964566 365.355285,62.9445432 382.966003,82.741169 C400.576722,102.537795 426.708338,312.253849 413.080073,330.949943 L413.080073,330.949943 Z" id="Path" fill="#F9CE46"></path>
                        <g id="Group" transform="translate(44.799198, 51.204582)" fill="#112870">
                            <path d="M5.4772698,68.59186 C0.983656308,83.4200947 0.154863041,98.947042 0.0253640925,114.344598 C-0.11708475,130.402049 0.340478199,146.453031 1.39805294,162.497543 C3.51401433,194.571725 7.87585278,226.458432 14.4515469,257.923574 C17.4882972,272.493026 20.719296,287.250095 24.9474366,301.528417 C26.5337987,306.891684 29.0460783,311.918533 33.6756657,315.276235 C37.9167563,318.355746 43.0772894,320.063711 48.166598,321.09884 C59.9186275,323.46023 72.0008794,322.658005 83.9083077,322.748579 C87.5925527,322.748579 91.2444231,322.929726 94.9157182,322.826213 C120.886732,322.075744 146.877171,319.591433 172.731636,317.191225 C209.703586,313.749419 246.656111,309.634778 283.369062,304.032138 C299.66003,301.554296 315.931573,298.791793 332.015342,295.207656 C343.3983,292.665118 354.975506,289.896146 365.685069,285.186305 C367.459762,284.423237 369.189248,283.559213 370.865027,282.598481 C373.319032,281.162238 371.098125,277.338727 368.637645,278.781439 C360.045389,283.814758 349.860297,286.324948 340.290325,288.725155 C325.721693,292.380457 310.919964,295.117082 296.105284,297.575515 C260.2535,303.527512 224.103869,307.732727 187.973662,311.323333 C159.716992,314.124653 131.382622,316.68013 103.015877,318.084025 C93.0638833,318.575711 83.1572138,318.342807 73.1922697,318.388094 C62.0035606,318.44632 49.1637399,318.808616 38.9980725,313.380654 C33.3454434,310.359369 30.6648152,305.481319 28.9878038,299.484036 C27.2136682,293.137396 25.7050055,286.680774 24.1121684,280.282378 C16.3788373,249.154427 10.9040763,217.509387 7.7305515,185.593877 C6.17224749,170.015174 5.1621557,154.393339 4.70027612,138.728375 C4.25350474,123.434332 3.94918222,107.952671 5.34777086,92.7039152 C6.02624105,84.9312623 7.49057124,77.2472142 9.71836035,69.7693202 C10.5471536,67.0391653 6.28016328,65.8875833 5.45137001,68.59186 L5.4772698,68.59186 Z" id="Path"></path>
                            <path d="M42.2096464,46.5630035 C38.4865516,35.597097 52.9451092,22.8908785 63.3373998,27.2060759 C69.6116238,29.7939004 76.8700398,35.965862 79.1103716,42.5195277 C81.8298495,50.4706186 78.1261796,59.2174656 74.9793552,66.4569047 C73.8591893,69.0447293 77.6664584,71.2896671 78.7930992,68.6824339 C82.6780677,59.7479696 86.815559,49.357854 82.7751919,39.7440858 C79.6024676,32.2070468 71.1202865,24.9805468 63.3503497,22.4832961 C50.0702325,18.1939769 33.3583933,34.2190804 37.949131,47.7145854 C38.8556237,50.3865143 43.1290889,49.2414019 42.2096464,46.5371253 L42.2096464,46.5630035 Z" id="Path"></path>
                            <path d="M153.501042,25.4592943 C152.6075,19.8825324 154.796032,13.8140838 160.170238,11.3879983 C166.904183,8.33436536 174.823044,11.8020503 179.847603,16.4924823 C187.411711,23.4108648 190.362742,34.0347796 187.449192,43.8587269 C186.801697,46.1748298 184.166393,54.0871034 180.844745,53.6471732 C178.034618,53.2719387 178.060518,57.6906491 180.844745,58.0594141 C185.377208,58.6675529 188.226185,53.3689821 189.851397,49.9012972 C191.864294,45.6521933 192.927062,41.0161118 192.965847,36.3152183 C192.936965,27.2811859 189.033018,18.6930524 182.243334,12.7271975 C175.768386,7.06633133 166.166039,3.61805512 157.936381,7.59036581 C150.69739,11.0903985 148.036187,19.1191242 149.234052,26.6496936 C149.680823,29.4510137 153.941339,28.2606144 153.501042,25.478703 L153.501042,25.4592943 Z" id="Path"></path>
                            <path d="M255.805211,20.9758883 C257.404523,13.9370055 260.195226,6.54876642 267.913363,4.87315003 C273.673191,3.73403167 279.651162,4.76409735 284.696427,7.76504396 C290.925326,11.5950243 294.331148,19.3455588 294.234024,26.4879546 C294.130425,34.5296194 289.701561,42.0149019 283.349637,46.7700295 C281.096356,48.4521154 283.297838,52.2885653 285.577019,50.5870707 C292.977884,45.0620653 298.144892,36.8198441 298.624038,27.4519192 C299.077285,18.6339071 294.946268,9.2659822 287.487129,4.31029819 C281.549602,0.370335312 273.281094,-0.95592477 266.372325,0.69381338 C257.307399,2.867586 253.454805,11.3750592 251.538221,19.8048977 C250.890726,22.5738699 255.170666,23.7513301 255.805211,20.9758883 L255.805211,20.9758883 Z" id="Path"></path>
                            <path d="M6.53268623,316.324304 C8.89116986,323.003282 14.1502394,328.255598 20.835845,330.609096 C23.5164733,331.57306 24.6690139,327.309619 22.0078105,326.352124 C16.7835808,324.469199 12.6673083,320.363462 10.7737768,315.146844 C9.81548456,312.494324 5.54201928,313.639436 6.51326139,316.324304 L6.53268623,316.324304 Z" id="Path"></path>
                            <path d="M70.7706394,66.0881397 C68.1806604,69.2905726 68.7698806,73.9033699 72.7131236,75.6889688 C76.0865712,77.2157853 80.0621889,75.6242732 80.9686815,71.910745 C81.8427994,68.3071993 79.4600188,64.3025408 75.5167758,64.3154799 C73.5384878,64.2820605 71.814261,65.6548684 71.4051842,67.589078 C71.062012,69.491129 72.1627531,71.703719 74.2023615,72.0466058 C75.3738006,72.3330905 76.565833,71.6581673 76.9218394,70.5068502 C77.2132121,69.4458421 76.5657173,67.9837212 75.3808019,67.7896344 C74.6685577,67.6667127 75.6074251,67.8413909 75.7110243,68.1389907 C75.7757737,68.326608 75.5621005,68.8506425 75.4649763,68.7859468 C75.6721746,68.9800337 76.112471,68.8441729 76.3973687,69.1935292 C76.8481233,69.859148 76.8783062,70.7236738 76.475068,71.4190583 C75.3808019,72.9846922 72.5318251,70.9403108 73.8850891,69.2452857 C74.7098926,68.3666975 74.7098926,66.9990757 73.8850891,66.1204876 C73.1080954,65.3506098 71.5087834,65.1888707 70.7576895,66.1204876 L70.7706394,66.0881397 Z" id="Path"></path>
                            <path d="M178.643263,54.8634508 C176.053284,58.0658836 176.642504,62.6786809 180.585747,64.4642798 C183.959195,65.9910963 187.934813,64.3995842 188.841305,60.686056 C189.715423,57.0825103 187.332642,53.0778518 183.3894,53.0907909 C181.411112,53.0573715 179.686885,54.4301794 179.277808,56.364389 C178.934636,58.26644 180.035377,60.47903 182.074985,60.8219168 C183.248311,61.1078241 184.441147,60.4296082 184.794463,59.2756916 C185.085836,58.2211531 184.438341,56.7590322 183.253426,56.5649454 C182.541181,56.4420237 183.480049,56.6167019 183.583648,56.9078322 C183.648397,57.101919 183.441199,57.6259535 183.3376,57.5547883 C183.544798,57.7488751 183.985095,57.6130143 184.269992,57.9623707 C184.720747,58.6279895 184.75093,59.4925153 184.347692,60.1878998 C183.253426,61.7535336 180.404449,59.7091522 181.757713,58.0141272 C182.582516,57.135539 182.582516,55.7679172 181.757713,54.889329 C180.980719,54.1194512 179.381407,53.9577122 178.630313,54.889329 L178.643263,54.8634508 Z" id="Path"></path>
                            <path d="M280.066839,48.1998025 C277.47686,51.4022354 278.06608,56.0150327 282.009323,57.8006316 C285.382771,59.3274481 289.358389,57.735936 290.264881,54.0224078 C291.138999,50.4188621 288.756219,46.4142036 284.812976,46.4271427 C282.834688,46.3937233 281.110461,47.7665312 280.701384,49.7007408 C280.364687,51.6027918 281.458953,53.8153818 283.505036,54.1582686 C284.675998,54.4413334 285.865817,53.767664 286.224514,52.618513 C286.509412,51.5575049 285.861917,50.095384 284.677002,49.9012972 C283.964757,49.7783755 284.903625,49.9530537 285.007224,50.2441839 C285.110823,50.5353142 284.864775,50.9623053 284.761176,50.8911401 C284.968374,51.0852269 285.408671,50.9493661 285.700043,51.2987224 C286.147742,51.9653324 286.177864,52.8280911 285.777743,53.5242516 C284.677002,55.0898854 281.828025,53.045504 283.187764,51.3504789 C284.012567,50.4718908 284.012567,49.1042689 283.187764,48.2256808 C282.41077,47.455803 280.811458,47.294064 280.060364,48.2256808 L280.066839,48.1998025 Z" id="Path"></path>
                        </g>
                        <path d="M148.780847,191.934336 C142.105528,198.537461 114.565775,200.997448 107.539465,196.21342 C100.513155,191.429392 98.3617138,166.803623 103.373078,156.329255 C108.384442,145.854888 137.705148,144.417737 144.60796,152.056645 C151.510773,159.695554 155.462666,185.324739 148.780847,191.934336 Z" id="Path" fill="#4081F4"></path>
                        <g id="Group" transform="translate(107.799020, 127.342009)" fill="#FF7348">
                            <path d="M139.242559,54.7455169 C132.548802,61.3203429 104.966357,63.7786439 97.927494,59.0104433 C90.8886311,54.2422427 88.7333455,29.7043983 93.7471517,19.2388754 C98.7609579,8.77335251 128.147071,7.36676559 135.062217,14.973949 C141.977363,22.5811324 145.936316,48.1384297 139.242559,54.7455169 Z" id="Path"></path>
                            <path d="M237.728038,44.583249 C231.034281,51.158075 203.451836,53.616376 196.412973,48.8417232 C189.37411,44.0670703 187.218824,19.5421304 192.23263,9.07660749 C197.246437,-1.38891541 226.63255,-2.79550233 233.547696,4.81168108 C240.462841,12.4188645 244.395749,38.0019707 237.728038,44.583249 Z" id="Path"></path>
                            <path d="M48.2322098,136.011399 C41.538453,142.586225 13.9560075,145.044526 6.91714453,140.269873 C-0.121718442,135.49522 -2.27700396,110.97028 2.73680223,100.504758 C7.75060842,90.0392347 37.1367218,88.6326478 44.0518675,96.2398312 C50.9670132,103.847015 54.9129438,129.436573 48.2322098,136.011399 L48.2322098,136.011399 Z" id="Path"></path>
                            <path d="M146.7242,125.842679 C140.030443,132.423957 112.447998,134.875806 105.409135,130.107605 C98.3702717,125.339405 96.2149862,100.808013 101.228792,90.3424897 C106.242599,79.8769668 135.654758,78.4639276 142.537346,86.0775633 C149.419935,93.6911989 153.404934,119.267853 146.7242,125.842679 Z" id="Path"></path>
                        </g>
                        <g id="Group" transform="translate(116.428710, 196.845534)" fill="#4081F4">
                            <path d="M237.310599,44.5839911 C230.634994,51.1652693 203.10056,53.6171181 196.073949,48.8489175 C189.047338,44.0807168 186.889304,19.5493247 191.900883,9.07734957 C196.912462,-1.39462556 226.234425,-2.79476025 233.144034,4.8188754 C240.053643,12.432511 243.992705,38.009165 237.310599,44.5839911 Z" id="Path"></path>
                            <path d="M48.144616,136.012141 C41.4690107,142.593419 13.9345764,145.045268 6.9079656,140.277068 C-0.118645224,135.508867 -2.27667926,110.977475 2.73489978,100.511952 C7.74647882,90.046429 37.0684413,88.6333898 43.9780503,96.2470255 C50.8876592,103.860661 54.8267214,129.437315 48.144616,136.012141 L48.144616,136.012141 Z" id="Path"></path>
                            <path d="M146.458667,125.849873 C139.783061,132.431152 112.242127,134.883 105.222016,130.1148 C98.2019054,125.346599 96.0373713,100.808755 101.04895,90.3432317 C106.060529,79.8777088 135.382492,78.4711219 142.2596,86.0847576 C149.136709,93.6983932 153.140772,119.268595 146.458667,125.849873 L146.458667,125.849873 Z" id="Path"></path>
                            <path d="M244.772717,115.687605 C238.097112,122.262431 210.556177,124.720732 203.529567,119.952532 C196.502956,115.184331 194.351422,90.6464867 199.356501,80.1809638 C204.36158,69.7154409 233.696542,68.308854 240.599651,75.9160374 C247.50276,83.5232208 251.461323,109.106327 244.772717,115.687605 L244.772717,115.687605 Z" id="Path"></path>
                        </g>
                        <g id="Group" transform="translate(123.370776, 138.486747)" fill="#FFFFFF">
                            <path d="M88.0265609,13.4480401 C96.1352473,20.1206175 104.086085,26.976389 111.879073,34.0153547 C113.987331,35.9227291 117.127015,32.812739 115.012269,30.898899 C107.22793,23.8599333 99.2749307,17.0020066 91.1532703,10.3251188 C88.9736554,8.53412657 85.8209981,11.6182539 88.0265609,13.4480401 Z" id="Path"></path>
                            <path d="M94.7210924,35.6123766 L111.658517,11.9803317 C113.319176,9.66561983 109.478902,7.45435872 107.831217,9.74967361 L90.9002793,33.4140469 C89.2396203,35.7352245 93.0798942,37.9400199 94.7210924,35.644705 L94.7210924,35.6123766 Z" id="Path"></path>
                            <path d="M193.70545,26.2306811 C197.307716,18.3159773 201.424884,10.6442818 206.030653,3.26460083 C207.542112,0.846438102 203.708325,-1.37128868 202.20984,1.04040837 C197.601432,8.41856957 193.48417,16.0904404 189.884637,24.0064886 C188.716986,26.5927589 192.531312,28.8169514 193.70545,26.2306811 L193.70545,26.2306811 Z" id="Path"></path>
                            <path d="M187.250935,5.74742032 L206.478252,23.1400881 C208.586511,25.0474624 211.726194,21.9310067 209.611449,20.0171667 L190.410079,2.62449893 C188.301821,0.717124587 185.162138,3.82711462 187.276883,5.74742032 L187.250935,5.74742032 Z" id="Path"></path>
                            <path d="M4.40329928,115.036738 C9.02399488,108.516367 14.2354169,102.432506 19.9719773,96.861723 C22.0153662,94.8767606 18.8821698,91.7538392 16.8452678,93.7452673 C10.8463167,99.5891278 5.39820905,105.969499 0.569512329,112.806079 C-1.07817276,115.133723 2.76210114,117.332052 4.39681233,115.036738 L4.40329928,115.036738 Z" id="Path"></path>
                            <path d="M0.718712159,98.536333 C7.35342165,104.363604 14.2980161,109.830698 21.5223581,114.91389 C23.8576598,116.556171 26.0632225,112.728491 23.7603556,111.099141 C16.8432825,106.232108 10.1952693,100.99589 3.84542165,95.4134116 C1.71770233,93.5448314 -1.42846801,96.6548214 0.718712159,98.536333 L0.718712159,98.536333 Z" id="Path"></path>
                            <path d="M104.243934,107.627073 L118.969308,85.7860205 C120.565098,83.4260488 116.731311,81.2147877 115.148495,83.561828 L100.423121,105.396415 C98.8273312,107.756387 102.661118,109.967648 104.243934,107.620607 L104.243934,107.627073 Z" id="Path"></path>
                            <path d="M98.0294365,86.5231075 C105.160756,92.9068847 112.47371,99.0729841 119.968298,105.021406 C122.173861,106.773604 125.333005,103.67008 123.101495,101.90495 C115.602582,95.952218 108.289628,89.7839633 101.162633,83.4001861 C99.0478875,81.5057431 95.9017171,84.6157331 98.0294365,86.5231075 Z" id="Path"></path>
                        </g>
                        <g id="Group" transform="translate(379.097892, 103.072865)" fill="#FC92C3">
                            <path d="M239.631682,117.3356 C239.631682,117.3356 145.186492,18.8744839 96.9233222,7.45390344 C54.5589117,-2.28507931 28.8697159,-6.06380462 21.9238777,18.8939618 C14.9780394,43.8517283 64.8475972,54.1101235 64.8475972,54.1101235 C64.8475972,54.1101235 16.3502977,87.5278196 21.2084823,157.551106 C27.8096301,193.260709 137.876453,274.366957 137.876453,274.366957 L239.631682,117.3356 Z" id="Path"></path>
                            <path d="M22.6197622,76.0877612 C22.6197622,76.0877612 0.741672445,80.5936639 4.55928205,106.940859 C8.37689165,133.288053 44.1466579,130.165086 47.9642675,109.713222 C51.7818771,89.2613586 33.7279005,76.7824753 22.6197622,76.0877612 L22.6197622,76.0877612 Z" id="Path"></path>
                            <path d="M67.4620419,54.1101235 C67.4620419,54.1101235 28.8697159,25.1334035 16.0186144,49.3964558 C3.16751296,73.6595082 29.9102909,98.2731639 49.7007271,88.9172478 C69.4911632,79.5613317 72.3787589,60.9014408 67.4620419,54.1101235 L67.4620419,54.1101235 Z" id="Path"></path>
                            <path d="M14.9780394,118.380917 C14.9780394,118.380917 -0.630585861,120.802677 0.0197735257,141.254541 C0.670132913,161.706405 26.4113574,172.107638 37.1748053,162.401119 C47.9382531,152.6946 48.6341377,127.042119 37.1748053,121.153281 C30.3342674,117.646876 22.4730404,116.665014 14.9780394,118.380917 L14.9780394,118.380917 Z" id="Path"></path>
                        </g>
                        <g id="Group" transform="translate(381.592078, 178.853143)" fill="#112870">
                            <path d="M14.5275842,3.74088328 C21.2502638,10.6196606 30.4366176,14.5965066 40.096747,14.8099781 C42.9356145,14.8867136 42.9291625,10.5191851 40.096747,10.4488442 C31.6037584,10.2429264 23.535544,6.72492522 17.6438865,0.658674334 C15.6631312,-1.36202697 12.553281,1.7265766 14.5275842,3.74088328 L14.5275842,3.74088328 Z" id="Path"></path>
                            <path d="M7.40460778,43.1509533 C17.5858187,52.5638403 38.4385904,54.0218147 45.6777023,40.3373185 C46.9680966,37.8562043 43.1872414,35.6436643 41.8710392,38.1375678 C35.9997452,49.232241 18.6826539,47.6144011 10.52091,40.0559551 C8.44982716,38.1375678 5.35933284,41.2197767 7.40460778,43.1445586 L7.40460778,43.1509533 Z" id="Path"></path>
                            <path d="M0.410670747,77.0488571 C3.63665647,81.5250941 8.26271998,83.9998137 13.3146136,86.0524882 C19.0181564,88.3737368 25.1604332,90.0811015 31.2381903,88.149925 C36.3873417,86.4969922 40.6130984,82.799678 42.906586,77.9406943 C45.2000737,73.0817105 45.3554561,67.4971418 43.3356367,62.5202705 C42.2904173,59.9624207 38.0256642,61.0750854 39.0837875,63.6840921 C42.5226883,72.1697587 38.3482628,81.8128522 29.1671074,84.1980471 C24.4958801,85.4130257 19.8311048,83.9486567 15.488928,82.241292 C11.2822426,80.591479 6.93361387,78.5771723 4.21733389,74.8427116 C2.57208118,72.5854092 -1.25393788,74.7595815 0.410670747,77.0488571 L0.410670747,77.0488571 Z" id="Path"></path>
                        </g>
                        <g id="Group" transform="translate(399.426978, 165.628383)" fill="#FFFFFF">
                            <path d="M7.95840682,50.3271933 C8.45056621,47.0180481 10.9321095,44.321138 14.2516165,43.4878118 C17.0692732,42.7552524 15.8730982,38.48307 13.0421507,39.2221122 C7.78892472,40.6243064 3.96518642,45.0402054 3.42623257,50.3271933 C3.0806709,53.1472226 7.61949057,53.1277742 7.95840682,50.3271933 L7.95840682,50.3271933 Z" id="Path"></path>
                            <path d="M4.54266259,90.5012665 C4.04425634,87.726617 5.81858262,85.2112805 8.33719558,84.1027172 C10.9953623,82.9293257 8.68940267,79.1174239 6.04452679,80.2778498 C1.55222504,82.2551118 -0.654053333,87.0653687 0.169978349,91.6811409 C0.668384608,94.4817218 5.04106885,93.2953646 4.54266259,90.5012665 Z" id="Path"></path>
                            <path d="M15.3614011,9.88084135 C15.1708815,7.62431101 15.6312578,5.36078433 16.6904845,3.34615265 C18.0195678,0.824333304 14.1253536,-1.41872452 12.7696886,1.10957765 C11.3000026,3.80136425 10.6193917,6.83628362 10.8026452,9.88084135 C10.9820715,12.7138363 15.5208911,12.7332848 15.3348195,9.88084135 L15.3614011,9.88084135 Z" id="Path"></path>
                        </g>
                        <path d="M446.624385,154.130297 C434.982215,151.743796 422.702388,147.809294 412.782549,141.17869 C402.382823,134.232036 400.147737,120.229079 408.516163,110.779824 C410.402839,108.644873 407.240849,105.523071 405.341026,107.664472 C396.795108,117.339477 396.604468,131.974535 405.926093,141.32059 C410.705233,146.106493 417.463083,149.060594 423.675308,151.640596 C430.692806,154.5897 437.993108,156.843349 445.4674,158.367949 C448.287553,158.948449 449.490555,154.704347 446.657254,154.123847 L446.624385,154.130297 Z" id="Path" fill="#112870"></path>
                        <path d="M520.276965,148.271543 C530.650151,130.24624 497.58562,86.6176227 496.198207,84.5644351 C438.575158,109.681979 295.762319,174.593797 295.762319,174.593797 L322.44734,234.518377 C322.44734,234.518377 411.138081,197.761785 469.837348,171.148069 L520.276965,148.271543 Z" id="Path" fill="#A89FFF"></path>
                        <path d="M514.49461,151.707991 C534.483768,142.710185 549.949065,135.407619 555.603892,131.96498 C570.030278,123.175819 549.377006,65.1530133 528.539624,71.6405616 C523.746171,73.1336757 510.575683,78.6106008 493.131197,86.1544132 C494.538329,88.2213004 525.008644,133.555896 514.49461,151.707991 Z" id="Path" fill="#F9CE46"></path>
                        <path d="M324.559399,233.856946 C321.449811,226.64582 329.660963,222.985383 326.367298,215.716156 C323.073634,208.446928 314.671831,212.049263 311.35187,204.741301 C308.031908,197.433338 316.407415,193.766446 313.094028,186.43266 C309.78064,179.098875 301.391986,182.765768 298.078599,175.457805 C297.872801,175.016347 297.705652,174.558483 297.578961,174.089176 L272.945506,196.684466 C272.945506,196.684466 265.095935,204.676743 257.63424,213.250041 C259.343527,218.802027 262.341353,230.351448 269.74388,236.716864 C280.663594,236.884714 290.985058,236.465088 290.985058,236.465088 L324.559399,233.856946 Z" id="Path" fill="#FFFFFF"></path>
                        <g id="Group" transform="translate(244.492823, 66.929580)" fill="#112870">
                            <path d="M13.1616569,145.683506 C5.98934773,154.105899 -0.813988876,163.040115 0.325294894,165.521481 C1.56167671,168.229605 13.6536204,169.065365 25.0852973,169.233813 C17.8094169,162.845752 14.8446898,151.255243 13.1616569,145.683506 Z" id="Path"></path>
                            <path d="M289.567435,4.16785991 C300.879392,11.8653567 308.912746,23.5121749 312.094183,36.8273101 C313.472975,42.5739739 314.767616,50.1541279 312.657351,55.8683979 C310.864274,60.7145135 306.281246,63.6040423 301.840629,65.7420345 C294.111624,69.4738027 285.955388,72.350374 278.155178,75.9849607 C269.235104,80.1443273 260.306399,84.2907363 251.369063,88.4241879 C232.415524,97.2223496 213.559083,106.305577 194.404875,114.708534 C163.611847,128.249151 132.352748,140.727251 101.488515,154.09942 C97.2226742,155.945868 92.9568333,157.798795 88.710412,159.690594 C84.5740351,161.537041 80.6642203,163.739821 76.2236029,164.782902 C68.2033041,166.655265 59.7946131,166.428508 51.6254306,166.875543 C35.202914,167.776091 18.9681202,168.041721 2.76569252,164.705157 C-0.0113116741,164.135026 -1.19590787,168.398053 1.58756953,168.974663 C16.7737043,172.097427 32.0763568,172.34362 47.5020001,171.527296 C54.4283276,171.158006 61.3999675,171.047867 68.3068753,170.419427 C72.1298859,170.152663 75.9163686,169.501506 79.6090882,168.475798 C83.3635461,167.335535 86.8072902,165.365991 90.3740252,163.772215 C122.837139,149.214432 155.921681,136.075498 188.598411,122.029538 C209.73342,112.959268 230.486509,102.962535 251.349643,93.283261 C260.843675,88.8777014 270.337706,84.4678225 279.831738,80.0536246 C283.068339,78.5505513 286.304941,76.9697328 289.541543,75.5184896 C294.564748,73.3092311 299.833936,71.6765825 304.747097,69.2081734 C309.789722,66.6814553 314.495741,63.1051775 316.638371,57.7148457 C319.072296,51.5729773 318.04953,43.8567692 316.761362,37.5594104 C313.60035,22.3817779 304.641467,9.0400099 291.794217,0.377782872 C289.425025,-1.20951435 287.211189,2.61943527 289.567435,4.20025373 L289.567435,4.16785991 Z" id="Path"></path>
                            <path d="M50.6609233,106.966411 C50.6091377,114.36516 58.3057763,114.799237 63.1088931,117.805383 C67.1093327,120.306186 65.4780855,125.042163 64.5135782,128.767452 C63.6591154,132.052186 62.9664827,135.634942 64.3646946,138.874324 C66.6626817,144.167475 72.469145,144.705212 76.7802984,147.588262 C80.0169,149.771606 79.3695797,152.913806 78.074939,156.133752 C76.8709232,159.139899 75.5503898,161.96464 75.653961,165.26881 C75.7445859,168.106508 80.1852033,168.119466 80.0751588,165.26881 C79.8809627,159.217644 85.8298365,154.008717 82.8262702,147.840934 C80.3535066,142.748625 74.3593204,142.489475 70.2682559,139.386147 C66.6691549,136.652108 68.2097773,132.104016 69.1742846,128.424078 C69.9704886,125.411452 70.5854429,122.133198 69.5950428,119.088179 C68.6046427,116.043159 66.067147,114.177275 63.2189376,112.965747 C60.3707282,111.754218 55.0368087,110.853669 55.0691747,106.966411 C55.0691747,104.122233 50.6673965,104.115755 50.6479769,106.966411 L50.6609233,106.966411 Z" id="Path"></path>
                        </g>
                        <path d="M489.727369,102.65213 C446.244026,121.403023 403.11873,140.959569 360.351481,161.321766 C348.139046,167.134586 335.956808,173.01671 323.804766,178.968137 C321.248825,180.215598 323.4877,184.042443 326.030699,182.794983 C368.577943,162.003971 411.500489,141.988291 454.798338,122.747942 C467.161757,117.264313 479.555373,111.849987 491.979185,106.504964 C494.56748,105.38095 492.341547,101.554104 489.753252,102.671621 L489.727369,102.65213 Z" id="Path" fill="#FFFFFF"></path>
                        <path d="M503.220064,133.989598 L368.740438,193.502505 L330.554386,210.395625 C327.965501,211.540596 330.204886,215.30173 332.780827,214.163155 L467.253981,154.675834 L505.440033,137.78911 C508.028918,136.637743 505.78306,132.876609 503.20712,134.015184 L503.220064,133.989598 Z" id="Path" fill="#FFFFFF"></path>
                        <path d="M493.511106,85.5241246 C499.785364,94.7765355 505.040959,104.716623 509.181284,115.161674 C513.164486,125.300159 516.372307,136.312984 515.671964,147.357953 C515.490625,150.180271 519.761468,150.167413 519.942807,147.357953 C520.668162,135.946532 517.441581,124.470822 513.2958,113.99803 C509.052058,103.185226 503.65164,92.8912993 497.194161,83.3061301 C495.643401,80.9981301 491.941587,83.1904087 493.511106,85.5241246 L493.511106,85.5241246 Z" id="Path" fill="#112870"></path>
                        <path d="M547.966069,112.399271 C550.995992,118.021446 549.071324,124.399492 543.519641,127.579145 C541.112218,128.953454 543.290968,132.64535 545.711095,131.258546 C553.333542,126.885743 555.836246,117.896509 551.720124,110.25035 C550.417956,107.820321 546.638493,109.975488 547.978773,112.399271 L547.966069,112.399271 Z" id="Path" fill="#112870"></path>
                        <path d="M499.651553,197.397665 C499.651553,197.397665 451.052791,139.754118 428.489545,160.81121 C405.926298,181.868302 443.763627,232.956156 447.925148,239.518314 C443.412499,246.772246 427.767781,294.058574 454.173932,322.705787 C480.580083,351.353 517.012899,375.519844 517.012899,375.519844 C517.012899,375.519844 607.623515,249.532878 618.729574,219.152996 C585.749521,184.641864 551.377958,155.296411 499.651553,197.397665 Z" id="Path" fill="#FC92C3"></path>
                        <path d="M442.006817,277.201468 C443.046423,268.76454 444.827819,260.434811 447.330482,252.308236 C448.468957,248.629656 449.917926,245.067037 451.166367,241.446438 C452.36306,238.07709 451.243991,236.144385 449.15463,233.419272 C440.098577,221.565352 431.689385,208.66133 427.808219,194.120951 C424.528634,181.919144 423.461314,157.090335 442.278498,158.411017 C450.040829,158.958616 456.910492,164.267111 463.133295,168.454637 C470.171141,173.179025 477.049429,178.14178 483.768158,183.342903 C487.338831,186.10667 491.090624,188.838225 494.344334,191.969206 C496.284917,193.869699 498.296655,196.433753 501.052282,197.21972 C506.466508,198.765883 511.874266,193.057963 514.998604,189.443806 C516.842158,187.304947 513.704882,184.180408 511.874266,186.332152 C510.188557,188.41591 508.210437,190.247138 506.000768,191.769494 C502.352473,194.095181 500.702977,192.085169 498.050848,189.450248 C492.507249,183.942041 485.812239,179.297108 479.531219,174.632848 C472.810334,169.665798 465.94714,164.834037 458.87695,160.375933 C453.055201,156.69091 446.431345,153.469736 439.315875,154.004451 C423.500125,155.189843 420.117043,173.189762 421.721258,186.022919 C423.545406,200.640607 430.350383,214.15021 438.539642,226.22317 C440.984776,229.843769 444.219081,233.200233 446.347253,236.930352 C447.679787,239.268924 446.703027,240.724895 445.816827,243.089236 C445.031969,245.176557 444.301017,247.276763 443.623969,249.389853 C440.73592,258.445287 438.717289,267.753261 437.595225,277.188584 C437.24592,279.991005 441.670449,279.965235 442.006817,277.188584 L442.006817,277.201468 Z" id="Path" fill="#112870"></path>
                        <path d="M432.800372,177.597728 C435.393587,183.805477 440.294763,189.160919 447.134367,189.717938 C452.897787,190.187714 458.466715,186.268443 459.452137,180.235182 C459.925399,177.349418 455.666043,176.107868 455.186299,179.013766 C454.408334,183.778632 450.051733,186.033555 445.675683,184.838983 C441.137557,183.597433 438.38875,179.517097 436.599432,175.282405 C435.471383,172.597973 431.652874,174.913296 432.780923,177.597728 L432.800372,177.597728 Z" id="Path" fill="#FFFFFF"></path>
                        <g id="Group" transform="translate(0.000000, 0.000000)" fill="#112870">
                            <path d="M64.392165,127.839115 C69.2408706,125.992179 74.321074,124.819999 79.4898669,124.355549 C82.299645,124.109955 82.3255416,119.695715 79.4898669,119.941309 C73.9235986,120.409533 68.4487364,121.642686 63.2203451,123.60584 C60.5853688,124.601144 61.724818,128.866735 64.392165,127.858504 L64.392165,127.839115 Z" id="Path"></path>
                            <path d="M65.6352005,141.404986 L80.7717472,136.958431 C83.4973615,136.157017 82.3384898,131.897889 79.5999273,132.699303 L64.4504323,137.178173 C61.7312922,137.979587 62.8901638,142.238715 65.6287263,141.430838 L65.6352005,141.404986 Z" id="Path"></path>
                            <path d="M67.6227624,157.213523 L75.5082688,155.274618 C78.2727279,154.628317 77.100908,150.3498 74.3364489,151.021954 L66.4444684,152.960859 C63.6864834,153.60716 64.8518292,157.89214 67.6227624,157.213523 Z" id="Path"></path>
                            <path d="M399.56503,311.382309 C396.561028,310.393467 393.472862,312.300057 392.398154,315.150247 C391.187489,318.342977 393.045568,321.613263 395.797079,323.325962 C398.54859,325.038662 402.387757,325.264867 404.925621,323.177313 C407.275735,321.238408 407.657709,317.483396 405.333492,315.36999 C403.23587,313.431085 400.102384,316.572111 402.206481,318.491626 C402.996326,319.202558 402.051101,319.965194 401.306575,320.159084 C400.17197,320.391644 398.991349,320.158721 398.030659,319.512783 C397.247287,319.015131 396.308536,318.090919 396.412123,317.056837 C396.443268,316.586102 396.68305,316.153746 397.066155,315.877534 C397.44926,315.601323 397.935785,315.510026 398.393211,315.62851 C401.099402,316.520406 402.277696,312.261279 399.56503,311.375846 L399.56503,311.382309 Z" id="Path"></path>
                            <path d="M366.281461,330.422354 L378.200358,328.380041 C380.997188,327.895315 379.81242,323.64265 377.028538,324.120913 L365.109641,326.169689 C362.312811,326.647953 363.497579,330.900617 366.281461,330.422354 Z" id="Path"></path>
                            <path d="M393.14268,34.907407 C396.631337,23.9876273 401.126354,13.4141498 406.570053,3.32264746 C407.916675,0.821460236 404.103405,-1.40828031 402.756783,1.09936993 C397.132533,11.5255579 392.487988,22.4494961 388.882694,33.7311381 C388.015159,36.4456048 392.281619,37.6089477 393.14268,34.907407 L393.14268,34.907407 Z" id="Path"></path>
                            <path d="M416.844519,59.828797 L437.361078,52.3704764 C440.015477,51.407487 438.869554,47.1418964 436.182784,48.1178119 L415.672699,55.5761324 C413.0183,56.5391218 414.164223,60.8047124 416.844519,59.828797 Z" id="Path"></path>
                            <path d="M337.801705,13.0171716 L340.740966,33.5437106 C341.142363,36.3486596 345.402349,35.1530016 345.000952,32.3739047 L342.061691,11.8409026 C341.660294,9.04241668 337.406782,10.2316116 337.801705,13.0171716 L337.801705,13.0171716 Z" id="Path"></path>
                            <path d="M3.85892647,449.884743 L18.2444726,437.779514 C20.4197847,435.95048 17.2798252,432.84177 15.1174614,434.66434 L0.738389467,446.756643 C-1.44339678,448.585677 1.69656265,451.694388 3.85892647,449.87828 L3.85892647,449.884743 Z" id="Path"></path>
                            <path d="M39.291912,480.84259 C40.1218012,475.305054 42.1068448,470.003088 45.1186408,465.279647 C46.6465386,462.875405 42.82032,460.658591 41.3053705,463.05637 C38.0819025,468.098259 35.9454098,473.754966 35.0319258,479.666321 C34.5981582,482.445418 38.8581444,483.641076 39.291912,480.84259 L39.291912,480.84259 Z" id="Path"></path>
                            <path d="M87.9580461,459.740843 C88.2929756,464.834317 89.9216842,469.758753 92.6906448,474.04996 C94.2314908,476.421887 98.0577094,474.217999 96.5039151,471.82022 C94.11958,468.210375 92.6978566,464.052641 92.3734117,459.740843 C92.1727133,456.929431 87.7508735,456.903579 87.9580461,459.740843 Z" id="Path"></path>
                            <path d="M411.108428,397.637721 C418.931336,395.648377 425.904857,391.197707 430.996996,384.944358 C432.770911,382.759858 429.663322,379.618832 427.869984,381.829184 C423.305071,387.518639 417.010897,391.572197 409.936608,393.378594 C407.185097,394.089525 408.350443,398.348653 411.108428,397.637721 L411.108428,397.637721 Z" id="Path"></path>
                        </g>
                    </g>
                </g>
            </g>
        </g>
    </g>
</svg>