<!--?xml version="1.0" standalone="no"?-->
              <svg id="sw-js-blob-svg" viewBox="0 0 100 100" xmlns="http://www.w3.org/2000/svg" version="1.1">
                    <defs> 
                        <linearGradient id="sw-gradient" x1="0" x2="1" y1="1" y2="0">
                            <stop id="stop1" stop-color="rgba(249, 248, 240, 1)" offset="0%"></stop>
                            <stop id="stop2" stop-color="rgba(249, 248, 240, 1)" offset="100%"></stop>
                        </linearGradient>
                    </defs>
                <path fill="url(#sw-gradient)" d="M20.9,-37C25.8,-33.3,27.7,-25.2,31.7,-18.3C35.6,-11.4,41.6,-5.7,42.8,0.7C44.1,7.1,40.6,14.3,35.6,19.5C30.7,24.6,24.3,27.9,18.1,30.9C12,33.9,6,36.6,-1.1,38.6C-8.2,40.5,-16.4,41.6,-23,38.9C-29.6,36.1,-34.6,29.5,-38.1,22.4C-41.5,15.2,-43.5,7.6,-42.9,0.4C-42.3,-6.9,-39.1,-13.8,-35.6,-20.9C-32.2,-28,-28.4,-35.4,-22.4,-38.4C-16.4,-41.5,-8.2,-40.4,-0.1,-40.2C8,-39.9,15.9,-40.7,20.9,-37Z" width="100%" height="100%" transform="translate(50 50)" stroke-width="0" style="transition: all 0.3s ease 0s;" stroke="url(#sw-gradient)"></path>
              </svg>