<?xml version="1.0" encoding="UTF-8"?>
<svg width="569px" height="582px" viewBox="0 0 569 582" version="1.1" xmlns="http://www.w3.org/2000/svg" xmlns:xlink="http://www.w3.org/1999/xlink">
    <title>submarine</title>
    <g id="Przewodnik" stroke="none" stroke-width="1" fill="none" fill-rule="evenodd">
        <g id="Group-2" transform="translate(-1396.000000, -1075.000000)">
            <g id="Card---Attractions" transform="translate(1250.000000, 1034.000000)">
                <g id="submarine" transform="translate(147.676768, 42.182836)">
                    <g id="Group" transform="translate(73.217893, 253.097015)" fill-rule="nonzero" stroke="#1D2B47" stroke-width="2">
                        <path d="M449.977255,57.0015915 C449.977255,52.4665751 448.175507,48.1168372 444.964231,44.9100961 C441.752954,41.703355 437.397065,39.9025421 432.855634,39.9041563 L70.0956107,39.9041563 C31.3828739,39.9041563 -5.68434189e-14,71.2427095 -5.68434189e-14,109.900773 C-5.68434189e-14,148.558836 31.3828739,179.897388 70.0956107,179.897388 L342.554202,179.897388 C362.802646,179.897388 379.217254,163.505963 379.217254,143.286115 C379.219535,125.541824 391.961869,110.352641 409.455891,107.240901 L424.243017,104.611463 C439.141812,101.950923 449.986158,89.0058457 449.977255,73.8920791 L449.977255,57.0015915 Z" id="Path" fill="#FCB332"></path>
                        <path d="M332.899293,39.6911242 L117.090146,39.6911242 L128.933257,17.2374274 C134.528947,6.63862075 145.539844,0.0034574365 157.538361,0 L300.563883,0 C318.405406,0 332.868817,14.4429849 332.868817,32.2593097 L332.899293,39.6911242 Z" id="Path" fill="#FCB332"></path>
                        <ellipse id="Oval" fill="#FFFFFF" cx="239.525845" cy="109.888599" rx="36.5350513" ry="36.4834532"></ellipse>
                        <ellipse id="Oval" fill="#CFEDFF" cx="239.525845" cy="109.888599" rx="29.7022531" ry="29.6603049"></ellipse>
                        <g transform="translate(449.977249, 29.002945)" fill="#1D2B47" id="Path">
                            <path d="M20.1143926,8.64914699 C20.1143926,13.4150035 17.1520912,32.8740626 13.4949289,32.8740626 C9.83776658,32.8740626 6.86936985,13.3967435 6.86936985,8.64914699 C6.86936985,3.90155047 9.81948077,0 13.4766431,0 C17.1338054,0 20.1143926,3.88329049 20.1143926,8.64914699 Z"></path>
                            <path d="M6.85108404,70.7574481 C6.85108404,65.9915916 9.81948077,46.5325325 13.4766431,46.5325325 C17.1338054,46.5325325 20.0961068,66.0098516 20.0961068,70.7574481 C20.0961068,75.5050446 17.1338054,79.3944218 13.4766431,79.3944218 C9.81948077,79.3944218 6.85108404,75.5293913 6.85108404,70.7574481 Z"></path>
                            <path d="M0,36.2886801 L24.381082,36.2886801 C26.2695903,36.2886801 27.8005287,37.8174564 27.8005287,39.7032975 C27.8005287,41.5891387 26.2695903,43.117915 24.381082,43.117915 L0,43.117915 L0,36.2886801 L0,36.2886801 Z"></path>
                        </g>
                        <g transform="translate(153.411863, 9.817786)" fill="#FFFFFF">
                            <ellipse id="Oval" cx="7.90556583" cy="7.89440088" rx="7.90556583" ry="7.89440088"></ellipse>
                            <ellipse id="Oval" cx="49.3595005" cy="7.89440088" rx="7.90556583" ry="7.89440088"></ellipse>
                            <line x1="262.657396" y1="96.2301294" x2="175.641315" y2="96.2301294" id="Path"></line>
                        </g>
                    </g>
                    <path d="M317.244106,393.29291 C320.910327,392.703849 324.431611,391.413458 327.619048,389.490966 L295.506706,339.94403 C292.491042,342.134754 289.912713,344.881904 287.907648,348.04065 L317.244106,393.29291 Z" id="Path" fill="#FFFFFF" fill-rule="nonzero"></path>
                    <path d="M302.799423,335.696172 L333.752457,384.608209 C335.752457,382.525774 337.44873,380.15305 338.787879,377.564729 L311.051591,333.740672 C308.222685,333.967548 305.44182,334.626524 302.799423,335.696172 Z" id="Path" fill="#FFFFFF" fill-rule="nonzero"></path>
                    <g id="Group" transform="translate(153.881674, 326.296642)" stroke="#1D2B47" stroke-width="2">
                        <ellipse id="Oval" cx="159.94558" cy="36.5998134" rx="29.9245494" ry="29.7549034"></ellipse>
                        <ellipse id="Oval" fill="#FFFFFF" fill-rule="nonzero" cx="36.8084853" cy="36.5998134" rx="36.8084853" ry="36.5998134"></ellipse>
                        <ellipse id="Oval" fill="#CFEDFF" fill-rule="nonzero" cx="36.8084853" cy="36.5998134" rx="29.9245494" ry="29.7549034"></ellipse>
                    </g>
                    <path d="M195.623497,393.29291 C199.291057,392.703804 202.813784,391.413291 206.002886,389.490533 L173.889392,339.94403 C170.874185,342.135003 168.296247,344.882467 166.291486,348.041573 L195.623497,393.29291 Z" id="Path" fill="#FFFFFF" fill-rule="nonzero"></path>
                    <path d="M181.183261,335.696172 L212.136295,384.608209 C214.139923,382.529 215.836611,380.155695 217.171717,377.564729 L189.441353,333.740672 C186.610427,333.96686 183.827511,334.625849 181.183261,335.696172 Z" id="Path" fill="#FFFFFF" fill-rule="nonzero"></path>
                    <g id="Group" stroke="#1D2B47" stroke-width="2">
                        <ellipse id="Oval" cx="190.341577" cy="362.816308" rx="29.6963086" ry="29.7198451"></ellipse>
                        <line x1="108.736145" y1="423.927091" x2="108.736145" y2="301.705524" id="Path"></line>
                        <path d="M242.2507,38.0570149 L242.2507,100.485157 L307.091398,100.485157 C314.46554,100.485157 320.443463,106.467818 320.443463,113.847804 L320.443463,252.707118 L349.085501,252.707118 L349.085501,61.0558937 C349.085501,48.3563451 338.800421,38.0603826 326.11093,38.0570149 L242.2507,38.0570149 Z" id="Path" fill="#1D2B47" fill-rule="nonzero"></path>
                        <path d="M262.805933,106.041237 C270.033477,106.041237 275.889859,89.5742593 275.889859,69.2710858 C275.889859,48.9679123 270.033477,32.4948358 262.805933,32.4948358 L240.654059,32.4948358 L240.654059,106.041237 L262.805933,106.041237 Z" id="Path" fill="#FFFFFF" fill-rule="nonzero"></path>
                        <ellipse id="Oval" fill="#CFEDFF" fill-rule="nonzero" cx="239.64854" cy="69.2710858" rx="13.0900207" ry="36.77625"></ellipse>
                        <g>
                            <line x1="239.691199" y1="32.4948358" x2="0" y2="0" id="Path"></line>
                            <line x1="239.691199" y1="106.041237" x2="3.84534594" y2="149.233509" id="Path"></line>
                            <rect id="Rectangle" x="366.161031" y="267.673771" width="21.792325" height="10.6913377" rx="5.34566884"></rect>
                            <path d="M36.3144476,187.717446 C60.3737594,187.717446 60.3737594,199.689549 84.4574474,199.689549 C108.541135,199.689549 108.516759,187.717446 132.600447,187.717446 C156.684135,187.717446 156.665853,199.689549 180.743447,199.689549 C204.821041,199.689549 204.808853,187.717446 228.886447,187.717446 C252.964041,187.717446 252.951853,199.689549 277.029447,199.689549 C301.107041,199.689549 301.094853,187.717446 325.172447,187.717446 C349.250041,187.717446 349.237853,199.689549 373.315447,199.689549 C397.39304,199.689549 397.380852,187.717446 421.458446,187.717446 C445.53604,187.717446 445.523852,199.689549 469.601446,199.689549 C493.67904,199.689549 493.666852,187.717446 517.744446,187.717446 C541.82204,187.717446 541.809852,199.689549 565.887446,199.689549" id="Path"></path>
                            <line x1="320.443463" y1="238.844362" x2="342.229694" y2="238.844362" id="Path"></line>
                            <path d="M3.84534594,523.375438 L33.8707333,461.221746 C37.0066394,454.72239 43.0765121,450.130754 50.179885,448.884472 C57.2832578,447.638191 64.5518377,449.889605 69.709845,454.9338 C77.7441844,462.784508 78.7340462,475.373538 72.0255842,484.385295 L55.6386821,506.396155 C49.1485182,515.117554 57.1621948,527.175041 67.7109964,524.552522 L89.8750584,519.06353 C92.9517517,518.301477 96.2060879,518.834979 98.8790446,520.539605 C101.552001,522.244231 103.409876,524.970941 104.01935,528.083774 L106.255866,539.525274 C106.916406,542.921647 106.025837,546.435737 103.827714,549.106496 C101.629592,551.777254 98.3539245,553.325217 94.8965561,553.327041 L94.1043296,553.327041 C81.8309116,553.327041 77.9977538,569.928194 89.0279854,575.319604 L97.4133991,579.393657" id="Path"></path>
                            <path d="M3.84534594,479.335422 L21.4449641,423.50017 C23.2529082,417.765497 27.6334018,413.204993 33.2877309,411.170741 C38.94206,409.136489 45.2212727,409.861961 50.2637295,413.132073 L66.6506316,423.756323" id="Path"></path>
                            <path d="M463.147847,564.853925 L463.147847,513.324483 C463.149873,504.095267 467.712844,495.464418 475.335948,490.270715 L499.913254,473.498793 C506.434005,469.047994 510.765265,462.040684 511.833217,454.214132 L517.848045,410.064336 L529.426741,470.107815 C531.47229,480.703605 527.231911,491.530246 518.536673,497.912612 C511.374133,503.170285 507.142108,511.527799 507.140798,520.417481 L507.140798,564.853925" id="Path"></path>
                            <path d="M438.363343,564.853925 L438.363343,526.333396 C438.372817,509.120729 446.44956,492.909282 460.180044,482.543433 C473.899637,472.173802 481.966757,455.965816 481.972369,438.759569 L481.972369,426.372743 C481.971459,411.824386 487.745459,397.871559 498.024098,387.583862 L501.625682,383.979424" id="Path"></path>
                            <path d="M543.059132,564.853925 L543.059132,538.561651 C543.059958,525.906305 547.019355,513.568702 554.381878,503.279627 C561.74699,492.991855 565.706662,480.653397 565.704625,467.997603 L565.704625,383.979424 L549.896657,438.259461 C548.123719,444.339301 542.556147,448.520152 536.227702,448.523877" id="Path"></path>
                            <path d="M276.005646,493.448231 C276.005646,493.448231 237.552187,470.784791 220.037885,479.335422 C202.523584,487.886052 243.109961,497.723547 267.888371,479.335422 C279.850992,466.509476 276.005646,493.448231 276.005646,493.448231 L276.005646,493.448231 Z" id="Path"></path>
                            <path d="M356.995579,534.493698 C356.995579,534.493698 332.576718,520.106438 321.448982,525.534442 C310.321245,530.962446 336.074703,537.213799 351.840012,525.534442 C359.433199,517.386338 356.995579,534.493698 356.995579,534.493698 Z" id="Path"></path>
                            <line x1="8.11727542" y1="560.57861" x2="46.1441512" y2="493.448231" id="Path"></line>
                            <line x1="23.9252427" y1="569.129241" x2="73.0615728" y2="548.606507" id="Path"></line>
                        </g>
                    </g>
                </g>
            </g>
        </g>
    </g>
</svg>