<?xml version="1.0" encoding="UTF-8"?>
<svg width="735px" height="520px" viewBox="0 0 735 520" version="1.1" xmlns="http://www.w3.org/2000/svg" xmlns:xlink="http://www.w3.org/1999/xlink">
    <title>shops</title>
    <g id="Przewodnik" stroke="none" stroke-width="1" fill="none" fill-rule="evenodd">
        <g id="Group-2" transform="translate(-265.000000, -2261.000000)" fill-rule="nonzero">
            <g id="Card---Shops" transform="translate(202.000000, 2188.000000)">
                <g id="shops" transform="translate(63.000000, 73.000000)">
                    <path d="M89.3852856,513.642063 C87.6592923,511.049637 85.0351578,509.182474 83.1373462,506.698066 C81.2395346,504.213658 80.1149056,500.664504 81.8877583,498.110657 C83.6606111,495.556809 88.9166901,496.397804 88.7136321,499.49174 C86.3847212,495.441975 84.7089082,491.058377 83.7465203,486.498751 C82.9655279,482.725846 82.8405691,478.320266 85.5506128,475.542667 C88.9401199,472.078384 95.1724394,473.228001 98.6478557,476.568835 C102.123272,479.909669 103.552488,484.81676 104.833316,489.461523 C105.255124,483.941349 108.081965,478.873981 112.58076,475.573529 C115.056506,473.775805 118.172666,472.572179 121.171677,473.14313 C125.435896,473.914685 128.348997,478.17367 128.981601,482.401793 C129.614205,486.629915 128.505196,490.935193 127.419616,495.08616 C129.06751,492.231406 131.676025,489.538678 134.995243,489.291781 C138.314461,489.044883 141.735207,492.578606 140.274752,495.525947 C142.55525,490.942909 148.201825,484.724174 153.161127,483.103908 C164.462087,479.369581 164.391798,495.518231 162.400267,502.037873 C163.181259,499.098247 167.086221,497.732595 169.889984,498.897643 C172.693747,500.062691 174.45098,503.071757 174.880526,506.080822 C175.305642,509.197105 174.588147,512.360819 172.857755,515" id="Path" fill="#2F2C2B"></path>
                    <rect id="Rectangle" fill="#E9E3E0" x="0" y="0" width="735" height="441" rx="21.45"></rect>
                    <path d="M104,197.277177 L104,513.722823 C104,514.428189 104.447715,515 105,515 C105.552285,515 106,514.428189 106,513.722823 L106,197.277177 C106,196.571811 105.552285,196 105,196 C104.447715,196 104,196.571811 104,197.277177 Z" id="Path" fill="#2F2C2B"></path>
                    <path d="M718.404474,0 L16.5955263,0 C7.43007022,0 0,7.24791858 0,16.1886792 L0,26 L735,26 L735,16.1886792 C735,7.24791858 727.56993,0 718.404474,0 L718.404474,0 Z" id="Path" fill="#2F2C2B"></path>
                    <circle id="Oval" fill="#EB9047" cx="29.5" cy="13.5" r="2.5"></circle>
                    <circle id="Oval" fill="#82B579" cx="43.5" cy="13.5" r="2.5"></circle>
                    <circle id="Oval" fill="#FFFFFF" cx="57.5" cy="13.5" r="2.5"></circle>
                    <rect id="Rectangle" fill="#FFFFFF" x="72" y="55" width="607" height="47" rx="23.5"></rect>
                    <rect id="Rectangle" fill="#9AD3BB" x="191" y="329" width="355" height="189"></rect>
                    <path d="M499.939799,512.345665 C496.795938,511.350746 494.31531,508.8349 493.288843,505.600282 C492.396923,502.414742 493.61178,498.54431 496.36443,496.887828 C499.117079,495.231347 503.284499,496.378142 504.560867,499.452189 C503.092275,497.270093 504.745403,493.877492 507.228939,493.240384 C509.712475,492.603276 512.372857,494.036769 513.872205,496.218865 C511.45787,492.539565 510.027722,488.000169 510.735107,483.620051 C511.442492,479.239932 514.57959,475.16244 518.800832,474.270489 C525.336454,472.876814 531.057044,479.0488 534.178765,485.109291 C533.54058,481.621124 532.979286,478.045354 533.509825,474.54126 C534.040363,471.037165 535.862648,467.556961 538.892101,465.948263 C542.229112,464.188252 546.442665,465.024456 549.510563,467.254335 C552.57846,469.484213 554.639103,472.90867 556.192274,476.44462 C558.451444,481.507018 559.803602,486.952502 560.182848,492.515674 C560.380151,490.452628 561.705252,488.690961 563.588335,487.988221 C565.471417,487.285482 567.576827,487.76693 568.9992,489.225536 C570.421573,490.684141 570.907376,492.859912 570.247704,494.817227 C570.401483,492.284722 573.523204,490.652132 575.729937,491.759108 C577.93667,492.866083 578.751701,496.027732 577.675245,498.305394 C579.482152,494.323468 582.242491,489.744253 586.471422,489.951313 C589.739233,490.118554 592.230458,493.43948 592.622595,496.80819 C593.014733,500.176899 591.853699,503.505789 590.446618,506.579836 C591.084802,504.063259 594.790884,503.505789 596.597791,505.345439 C598.404698,507.185089 598.335497,510.330811 597.128329,512.6244 C595.921162,514.917989 593.822074,516.534651 591.746053,518" id="Path" fill="#2F2C2B"></path>
                    <rect id="Rectangle" fill="#80BFA7" x="191" y="330" width="355" height="69"></rect>
                    <path d="M303.992264,515 L242,515 L242,425.203952 C242,416.9268 245.267124,408.988773 251.082425,403.136673 C256.897726,397.284573 264.784685,393.997935 273.007736,394 L273.007736,394 C290.125542,394.004301 304,407.973527 304,425.203952 L303.992264,515 Z" id="Path" fill="#E3B764"></path>
                    <path d="M304.594466,513.434198 L242.283145,513.434198 L243.566231,514.713223 C243.566231,485.001078 243.185193,455.257927 243.566231,425.569037 C243.752861,411.515262 253.379894,399.081586 267.36942,396.182462 C283.326344,392.880251 299.353254,403.438023 302.697054,419.297937 C303.816838,424.60783 303.31138,430.475843 303.31138,435.863252 L303.31138,514.713223 C303.31138,515.419609 303.885837,515.992248 304.594466,515.992248 C305.303094,515.992248 305.877552,515.419609 305.877552,514.713223 L305.877552,437.452344 C305.877552,432.026176 306.297471,426.398465 305.582053,421.026559 C303.667284,406.849742 292.636763,395.611095 278.46019,393.392953 C264.283616,391.174812 250.329365,398.50421 244.149452,411.41449 C240.945625,418.15069 241,425.041923 241,432.235472 L241,514.713223 C241.008358,515.417428 241.576767,515.987473 242.283145,516 L304.594466,516 C305.266529,515.947885 305.785213,515.38906 305.785213,514.717099 C305.785213,514.045138 305.266529,513.486313 304.594466,513.434198 Z" id="Path" fill="#2F2C2B"></path>
                    <path d="M189.5,365 C179.835017,365 172,357.081561 172,347.313672 L172,274 L207,274 L207,347.305983 C207.002017,351.998021 205.159163,356.498583 201.877058,359.817076 C198.594953,363.135569 194.142606,365 189.5,365 Z" id="Path" fill="#D05C60"></path>
                    <path d="M225.5,365 C215.835017,365 208,357.081561 208,347.313672 L208,274 L243,274 L243,347.305983 C243.002017,351.998021 241.159163,356.498583 237.877058,359.817076 C234.594953,363.135569 230.142606,365 225.5,365 Z" id="Path" fill="#E3B764"></path>
                    <path d="M259.5,365 C249.835017,365 242,357.081561 242,347.313672 L242,274 L277,274 L277,347.305983 C277.002017,351.998021 275.159163,356.498583 271.877058,359.817076 C268.594953,363.135569 264.142606,365 259.5,365 Z" id="Path" fill="#D05C60"></path>
                    <path d="M295.5,365 C285.835017,365 278,357.081561 278,347.313672 L278,274 L313,274 L313,347.305983 C313.002017,351.998021 311.159163,356.498583 307.877058,359.817076 C304.594953,363.135569 300.142606,365 295.5,365 Z" id="Path" fill="#E3B764"></path>
                    <path d="M332.5,365 C322.835017,365 315,357.081561 315,347.313672 L315,274 L350,274 L350,347.305983 C350.002017,351.998021 348.159163,356.498583 344.877058,359.817076 C341.594953,363.135569 337.142606,365 332.5,365 Z" id="Path" fill="#D05C60"></path>
                    <path d="M368.5,365 C358.835017,365 351,357.081561 351,347.313672 L351,274 L386,274 L386,347.305983 C386.002017,351.998021 384.159163,356.498583 380.877058,359.817076 C377.594953,363.135569 373.142606,365 368.5,365 Z" id="Path" fill="#E3B764"></path>
                    <path d="M403.5,365 C393.835017,365 386,357.081561 386,347.313672 L386,274 L421,274 L421,347.305983 C421.002017,351.998021 419.159163,356.498583 415.877058,359.817076 C412.594953,363.135569 408.142606,365 403.5,365 Z" id="Path" fill="#D05C60"></path>
                    <path d="M439.5,365 C429.835017,365 422,357.081561 422,347.313672 L422,274 L457,274 L457,347.305983 C457.002017,351.998021 455.159163,356.498583 451.877058,359.817076 C448.594953,363.135569 444.142606,365 439.5,365 Z" id="Path" fill="#E3B764"></path>
                    <path d="M474.5,365 C464.835017,365 457,357.081561 457,347.313672 L457,274 L492,274 L492,347.305983 C492.002017,351.998021 490.159163,356.498583 486.877058,359.817076 C483.594953,363.135569 479.142606,365 474.5,365 Z" id="Path" fill="#D05C60"></path>
                    <path d="M510.5,365 C500.835017,365 493,357.081561 493,347.313672 L493,274 L528,274 L528,347.305983 C528.002017,351.998021 526.159163,356.498583 522.877058,359.817076 C519.594953,363.135569 515.142606,365 510.5,365 Z" id="Path" fill="#E3B764"></path>
                    <path d="M545.5,365 C535.835017,365 528,357.081561 528,347.313672 L528,274 L563,274 L563,347.305983 C563.002017,351.998021 561.159163,356.498583 557.877058,359.817076 C554.594953,363.135569 550.142606,365 545.5,365 Z" id="Path" fill="#D05C60"></path>
                    <path d="M170,348.191562 C170.310144,357.882934 178.460126,366 189.069022,366 C199.677918,366 207.827901,357.882934 208.137198,348.191562 L205.585496,348.191562 C205.894793,357.882934 214.044775,366 224.653671,366 C235.262567,366 243.41255,357.882934 243.721847,348.191562 L241.170145,348.191562 C241.479442,357.882934 249.629425,366 260.23832,366 C270.847216,366 278.997199,357.882934 279.314228,348.191562 L276.754794,348.191562 C277.071823,357.882934 285.221806,366 295.830702,366 C306.439598,366 314.58958,357.882934 314.898878,348.191562 L312.347175,348.191562 C312.656472,357.882934 320.806455,366 331.415351,366 C342.024247,366 350.174229,357.882934 350.483527,348.191562 L347.931824,348.191562 C348.241122,357.882934 356.391104,366 367,366 C377.608896,366 385.758878,357.882934 386.068176,348.191562 L383.516473,348.191562 C383.825771,357.882934 391.975753,366 402.584649,366 C413.193545,366 421.343528,357.882934 421.652825,348.191562 L419.101122,348.191562 C419.41042,357.882934 427.560402,366 438.169298,366 C448.778194,366 456.928177,357.882934 457.245206,348.191562 L454.685772,348.191562 C455.002801,357.882934 463.191446,366 473.76168,366 C484.331913,366 492.520558,357.882934 492.829855,348.191562 L490.278153,348.191562 C490.58745,357.882934 498.737433,366 509.346329,366 C519.955225,366 528.105207,357.882934 528.414504,348.191562 L525.862802,348.191562 C526.172099,357.882934 534.322082,366 544.930978,366 C555.539874,366 563.689856,357.882934 564,348.191562 C564.053281,346.653364 561.493846,346.660585 561.447451,348.191562 C561.176816,356.626378 554.124839,363.559103 544.930978,363.616876 C535.737117,363.674648 528.692872,356.54694 528.414504,348.191562 C528.414504,347.533481 527.843286,347 527.138653,347 C526.43402,347 525.862802,347.533481 525.862802,348.191562 C525.592167,356.626378 518.54019,363.559103 509.346329,363.616876 C500.152468,363.674648 493.108223,356.54694 492.829855,348.191562 C492.829855,347.533481 492.258637,347 491.554004,347 C490.849371,347 490.278153,347.533481 490.278153,348.191562 C490.007518,356.626378 482.955541,363.559103 473.76168,363.616876 C464.567819,363.674648 457.523574,356.54694 457.245206,348.191562 C457.193221,347.567437 456.635782,347.085752 455.965489,347.085752 C455.295196,347.085752 454.737757,347.567437 454.685772,348.191562 C454.415136,356.626378 447.363159,363.559103 438.169298,363.616876 C428.975437,363.674648 421.931192,356.54694 421.652825,348.191562 C421.652825,347.533481 421.081607,347 420.376974,347 C419.67234,347 419.101122,347.533481 419.101122,348.191562 C418.830487,356.626378 411.77851,363.559103 402.584649,363.616876 C393.390788,363.674648 386.346543,356.54694 386.068176,348.191562 C386.068176,347.533481 385.496958,347 384.792325,347 C384.087692,347 383.516474,347.533481 383.516473,348.191562 C383.245838,356.626378 376.193861,363.559103 367,363.616876 C357.806139,363.674648 350.761894,356.54694 350.483527,348.191562 C350.483527,347.533481 349.912309,347 349.207675,347 C348.503042,347 347.931824,347.533481 347.931824,348.191562 C347.661189,356.626378 340.609212,363.559103 331.415351,363.616876 C322.22149,363.674648 315.177245,356.54694 314.898878,348.191562 C314.898878,347.533481 314.32766,347 313.623026,347 C312.918393,347 312.347175,347.533481 312.347175,348.191562 C312.07654,356.626378 305.024563,363.559103 295.830702,363.616876 C286.636841,363.674648 279.592596,356.54694 279.314228,348.191562 C279.262243,347.567437 278.704804,347.085752 278.034511,347.085752 C277.364218,347.085752 276.806779,347.567437 276.754794,348.191562 C276.484159,356.626378 269.432181,363.559103 260.23832,363.616876 C251.044459,363.674648 244.000215,356.54694 243.721847,348.191562 C243.721847,347.533481 243.150629,347 242.445996,347 C241.741363,347 241.170145,347.533481 241.170145,348.191562 C240.89951,356.626378 233.847532,363.559103 224.653671,363.616876 C215.45981,363.674648 208.415565,356.54694 208.137198,348.191562 C208.137198,347.533481 207.56598,347 206.861347,347 C206.156714,347 205.585496,347.533481 205.585496,348.191562 C205.31486,356.626378 198.262883,363.559103 189.069022,363.616876 C179.875161,363.674648 172.830916,356.54694 172.552549,348.191562 C172.506154,346.660585 169.946719,346.653364 170,348.191562 Z" id="Path" fill="#2F2C2B"></path>
                    <rect id="Rectangle" fill="#D05C60" x="161" y="251" width="415" height="23" rx="11.5"></rect>
                    <rect id="Rectangle" fill="#46A6D1" x="333" y="398" width="160" height="69" rx="15.06"></rect>
                    <path d="M344.182059,399 L480.817941,399 C481.485101,398.959377 482,398.523782 482,398 C482,397.476218 481.485101,397.040623 480.817941,397 L344.182059,397 C343.514899,397.040623 343,397.476218 343,398 C343,398.523782 343.514899,398.959377 344.182059,399 L344.182059,399 Z" id="Path" fill="#2F2C2B"></path>
                    <path d="M410,398.288643 L410,419.711357 C410,420.423055 410.447715,421 411,421 C411.552285,421 412,420.423055 412,419.711357 L412,398.288643 C412,397.576945 411.552285,397 411,397 C410.447715,397 410,397.576945 410,398.288643 L410,398.288643 Z" id="Path" fill="#2F2C2B"></path>
                    <rect id="Rectangle" fill="#9AD3BB" x="71" y="509" width="592" height="11" rx="5.5"></rect>
                    <path d="M415.464309,426.00902 C415.165784,431.707751 406.669314,431.754208 406.669314,426.00902 C406.669314,420.263832 415.165784,420.310289 415.464309,426.00902 C415.556163,427.642759 418.082141,427.658245 417.997941,426.00902 C417.79127,422.207285 414.989731,419.001748 411.070638,419.001748 C407.251136,418.916224 404.086278,421.978954 404.001728,425.842549 C403.917179,429.706143 406.944957,432.907537 410.764459,432.993062 C414.798369,433.171148 417.783616,429.895926 417.997941,426.024505 C418.082141,424.359795 415.556163,424.367537 415.464309,426.00902 Z" id="Path" fill="#2F2C2B"></path>
                    <circle id="Oval" fill="#2F2C2B" cx="285.5" cy="449.5" r="3.5"></circle>
                    <rect id="Rectangle" fill="#C6C3C2" x="337" y="155" width="61" height="4" rx="2"></rect>
                    <rect id="Rectangle" fill="#C6C3C2" x="337" y="174" width="61" height="4" rx="2"></rect>
                    <rect id="Rectangle" fill="#C6C3C2" x="337" y="195" width="61" height="4" rx="2"></rect>
                    <rect id="Rectangle" fill="#C6C3C2" x="337" y="213" width="31" height="4" rx="2"></rect>
                    <path d="M105.938906,216.763436 C103.006361,222.224013 99.4857586,227.630447 94.2861003,231.002701 C89.086442,234.374955 81.820848,235.233488 76.7914167,231.59826 C71.7619853,227.963032 70.8334749,219.284892 75.8938566,215.703806 C74.1064741,221.117975 66.6087525,223.33005 61.8037111,220.228504 C56.9986698,217.126959 55.7451807,210.011193 58.6080878,205.092034 C51.5204584,213.940333 37.8945681,216.740232 27.8898684,211.403408 C17.8851688,206.066584 12.6313474,193.188596 16.0358856,182.383461 C19.4404237,171.578326 31.1396549,164.037161 42.3978436,165.3675 C35.8518452,165.243748 28.4701875,163.209567 25.5299045,157.377733 C22.5896215,151.545899 28.3541236,142.589316 34.3507534,145.195852 C30.48196,146.193606 26.3500887,143.741761 24.2918906,140.338569 C22.2336925,136.935377 21.6920615,132.797404 21.4986218,128.798653 C21.1504304,121.760233 21.6611111,114.319618 25.4680038,108.379501 C30.6753997,100.265981 41.2062552,96.7777091 50.8086004,97.7058524 C60.4109455,98.6339958 69.2163192,103.39073 77.2092463,108.781696 C70.3227941,101.348815 68.8062271,88.6719242 75.5069773,81.1152907 C82.2077274,73.5586572 96.9710429,74.7652435 100.716035,84.2091018 C99.5475751,76.6923448 103.365429,69.2808218 110.165273,65.8654848 C116.965117,62.4501477 125.192824,63.8115835 130.528957,69.2350563 C133.329963,72.0813625 135.078658,75.7939357 136.455948,79.5451816 C140.805528,91.4120584 142.002538,104.203551 139.930124,116.670914 C140.322979,111.075511 142.010233,105.647718 144.858967,100.815133 C146.406485,98.1931277 148.395044,95.6794062 151.172838,94.4264127 C157.316482,91.6497173 164.76004,96.5224697 167.150955,102.833844 C169.541869,109.145219 168.28838,116.183639 166.841451,122.765722 C168.652046,118.573608 174.818903,117.629996 178.54842,120.267469 C182.277937,122.904943 183.670702,127.95559 183.152284,132.495758 C182.633866,137.035925 180.53698,141.220305 178.471044,145.296401 C183.113596,136.401694 195.965728,133.648202 204.538974,138.853539 C213.11222,144.058876 216.795311,155.513712 214.164532,165.150933 C211.09896,175.690738 202.074711,183.411469 191.183899,184.812102 C199.083975,184.146933 206.109704,191.773177 206.365044,199.685599 C206.620385,207.598021 201.335613,214.969026 194.495586,218.975511 C182.455901,226.013931 165.518324,223.043872 156.581411,212.331552 C162.663154,217.977757 161.030524,229.595017 153.633391,233.346263 C146.236258,237.097509 135.891104,231.551853 134.923906,223.291377 C138.328444,226.385188 138.506409,232.193819 135.805991,235.952799 C133.105573,239.711779 128.130305,241.444314 123.534178,240.902897 C115.835279,239.990222 109.436295,232.673359 109.560097,224.923363" id="Path" fill="#82B579"></path>
                    <path d="M43.1782711,215.997342 C50.2142712,215.623718 56.6896831,212.198324 60.7707247,206.691203 C61.6970333,205.469328 59.5776391,204.297181 58.658741,205.511952 C55.0426395,210.324009 49.3547942,213.315216 43.1782711,213.653048 C41.6146622,213.745399 41.5998412,216.089693 43.1782711,215.997342 L43.1782711,215.997342 Z" id="Path" fill="#2F2C2B"></path>
                    <path d="M57.3749766,217.883673 C63.2150737,223.573395 72.2484858,223.38195 77.6747792,217.202131 C78.7522303,215.976889 76.8940176,214.177313 75.8556046,215.417871 C71.3740328,220.540918 64.14418,220.893176 59.2253817,216.091755 C58.7208745,215.590587 57.8976634,215.585444 57.3866882,216.080268 C56.875713,216.575093 56.8704695,217.382504 57.3749766,217.883673 L57.3749766,217.883673 Z" id="Path" fill="#2F2C2B"></path>
                    <path d="M79.9093553,236.114803 C92.5125218,240.265619 101.531231,228.969956 107.541145,219.866892 L105.353629,219.866892 L108.654092,226.043971 C109.421642,227.46538 111.601483,226.210306 110.841609,224.781337 L107.541145,218.604258 C107.308301,218.22892 106.893936,218 106.447387,218 C106.000838,218 105.586473,218.22892 105.353629,218.604258 C99.9807806,226.747115 91.959886,237.468166 80.5464216,233.725627 C79.0113221,233.2115 78.3282029,235.623359 79.8709778,236.129924 L79.9093553,236.114803 Z" id="Path" fill="#2F2C2B"></path>
                    <path d="M117.639281,241.397715 C123.061814,244.782194 129.877534,244.871373 135.384235,241.629896 C136.794986,240.817261 135.529123,238.611535 134.118373,239.424171 C129.386782,242.228067 123.513615,242.138655 118.867016,239.191989 C117.479142,238.340657 116.21328,240.546382 117.601153,241.397715 L117.639281,241.397715 Z" id="Path" fill="#2F2C2B"></path>
                    <path d="M134.081859,224.589011 C136.962277,231.734898 144.0314,236.297912 151.736543,235.984848 C153.417186,235.921494 153.425114,233.308133 151.736543,233.371487 C145.203211,233.682927 139.169639,229.888217 136.626607,223.868357 C135.992402,222.332017 133.455582,223.005156 134.105642,224.557334 L134.081859,224.589011 Z" id="Path" fill="#2F2C2B"></path>
                    <path d="M135.632362,201.392502 C140.115618,204.163903 145.718773,204.422318 150.439501,202.075402 L148.700201,201.622693 C153.967705,213.940226 165.157674,222.740566 178.399137,224.979391 C179.992213,225.247947 180.707943,222.807924 179.068691,222.539368 C166.476674,220.455059 155.838588,212.07373 150.893567,200.341297 C150.531056,199.747524 149.761629,199.547256 149.154266,199.888589 C145.222882,201.80515 140.573882,201.540535 136.886813,199.190343 C135.486137,198.34631 134.208598,200.533123 135.601577,201.377156 L135.632362,201.392502 Z" id="Path" fill="#2F2C2B"></path>
                    <path d="M125,199 C125.564405,198.959377 126,198.523782 126,198 C126,197.476218 125.564405,197.040623 125,197 C124.435595,197.040623 124,197.476218 124,198 C124,198.523782 124.435595,198.959377 125,199 Z" id="Path" fill="#2F2C2B"></path>
                    <path d="M589.142415,203.451465 L585.10348,203.451465 C585.518894,201.492774 585.6943,199.491524 585.625891,197.491147 C585.524528,194.808618 584.846174,191.89417 582.655169,190.293929 C580.464164,188.693688 577.579211,188.856031 575.091914,189.721862 L575.037333,189.721862 C575.224525,187.621988 575.279212,185.512571 575.201074,183.405935 C574.99055,177.731651 573.509088,171.562607 568.916555,168.168859 C564.448776,164.867879 558.164257,165.12299 552.916761,166.962881 C551.357025,167.516866 549.842517,168.188831 548.386605,168.972845 C547.427553,163.259908 545.174171,157.77889 540.589435,154.385142 C534.647991,150.001873 526.305019,150.334291 519.326552,152.784901 C507.919292,156.789369 498.749819,165.741441 492.683621,176.115949 C492.137819,177.051356 491.615408,178.002223 491.124187,178.953091 C488.091087,177.553847 484.332851,177.855341 481.11262,178.953091 C474.929464,181.13313 469.954869,185.987967 466.656666,191.615867 C464.555948,195.336949 462.959358,199.316457 461.90819,203.451465 L455.865383,203.451465 C450.981321,203.451435 447.017182,207.367918 447,212.210271 L447,212.210271 C447,217.064704 450.969167,221 455.865383,221 L589.142415,221 C594.035585,220.995733 598,217.061687 598,212.210271 L598,212.210271 C597.98283,207.370934 594.023433,203.455691 589.142415,203.451465 L589.142415,203.451465 Z" id="Path" fill="#FFFFFF"></path>
                    <path d="M686.479279,303.237246 L683.96774,303.237246 C684.234049,302.03688 684.346364,300.808762 684.302093,299.581254 C684.239888,297.931878 683.796675,296.138085 682.44371,295.15758 C681.090744,294.177075 679.279015,294.268285 677.731658,294.807943 L677.731658,294.807943 C677.847001,293.519073 677.88076,292.224468 677.832741,290.931527 C677.700555,287.442753 676.775251,283.649947 673.94491,281.567323 C671.114568,279.4847 667.250063,279.689922 663.968734,280.807242 C662.997803,281.151356 662.054354,281.565472 661.146168,282.046175 C660.555217,278.534598 659.147822,275.167437 656.286378,273.077213 C652.585162,270.386525 647.383244,270.591747 643.06775,272.096708 C635.960794,274.559372 630.245681,280.054761 626.466709,286.431845 C626.12458,287.009507 625.798002,287.587169 625.486976,288.180032 C623.48856,287.408576 621.26486,287.408576 619.266445,288.180032 C615.378613,289.517776 612.268348,292.504896 610.254451,295.963267 C608.946105,298.237598 607.950024,300.670528 607.291923,303.199242 L603.520726,303.199242 C602.055192,303.199241 600.649795,303.768851 599.614236,304.78255 C598.578676,305.796249 597.997941,307.170843 598,308.603422 L598,308.603422 C598,311.58387 600.471716,314 603.520726,314 L686.479279,314 C689.528289,314 692,311.58387 692,308.603422 L692,308.603422 C691.982891,305.634854 689.516184,303.237199 686.479279,303.237246 L686.479279,303.237246 Z" id="Path" fill="#C6C3C2"></path>
                    <path d="M174.131605,73.7647103 L177.970933,81.7216442 C178.61882,83.0654457 179.258708,85.4435672 181.098386,85.5820195 C184.201844,85.8100585 184.185846,80.0439283 184.297827,78.0160097 L181.834258,78.7001268 L186.161501,85.3702689 C186.439943,85.8156227 186.946344,86.0566767 187.460515,85.9886173 C187.974686,85.920558 188.403725,85.5556823 188.561081,85.0526431 L192.928317,71.6390606 C193.456225,70.0102103 190.91267,69.2853719 190.384762,70.9305107 L186.073516,84.335949 L188.473096,84.0183232 L184.145853,77.3400368 C183.836688,76.8325949 183.237178,76.5917873 182.671029,76.7476376 C182.10488,76.9034879 181.706211,77.4190754 181.690283,78.0160097 C181.602298,79.3109457 181.690283,82.3731843 180.530486,83.334206 L181.81826,82.9840032 C180.802438,82.6663774 179.634642,79.0503296 179.170724,78.0974522 L176.427204,72.396476 C175.675335,70.840924 173.403732,72.201014 174.147602,73.7484218 L174.131605,73.7647103 Z" id="Path" fill="#2F2C2B"></path>
                    <path d="M198.197947,73.7647103 L202.035203,81.7216442 C202.68274,83.0654457 203.322282,85.4435672 205.160967,85.5820195 C208.262749,85.8100585 208.238766,80.0439283 208.35868,78.0160097 L205.896441,78.7001268 L210.221348,85.3702689 C210.499639,85.8156227 211.005768,86.0566767 211.519661,85.9886173 C212.033553,85.920558 212.462361,85.5556823 212.619632,85.0526431 L216.92855,71.6390606 C217.456173,70.0102103 214.905997,69.2853719 214.378374,70.9305107 L210.069456,84.335949 L212.467741,84.0183232 L208.142834,77.3400368 C207.830083,76.8365301 207.232045,76.5990363 206.667314,76.7540753 C206.102582,76.9091144 205.702659,77.4205843 205.680595,78.0160097 C205.600653,79.3109457 205.680595,82.3731843 204.529419,83.334206 L205.816498,82.9840032 C204.79323,82.6663774 203.634059,79.0503296 203.170391,78.0974522 L200.428352,72.396476 C199.67689,70.840924 197.398519,72.201014 198.149982,73.7484218 L198.197947,73.7647103 Z" id="Path" fill="#2F2C2B"></path>
                    <path d="M221.187032,73.7647103 L225.023253,81.7216442 C225.678608,83.0654457 226.317978,85.4435672 228.148175,85.5820195 C231.257112,85.8100585 231.233136,80.0439283 231.345025,78.0160097 L228.891443,78.7001268 L233.215183,85.3702689 C233.4934,85.8156227 233.999392,86.0566767 234.513146,85.9886173 C235.0269,85.920558 235.455592,85.5556823 235.612821,85.0526431 L239.92857,71.6390606 C240.45605,70.0102103 237.906561,69.2853719 237.379081,70.9305107 L233.071325,84.335949 L235.468963,84.0183232 L231.145222,77.3400368 C230.832555,76.8365301 230.234679,76.5990363 229.6701,76.7540753 C229.10552,76.9091144 228.705705,77.4205843 228.683647,78.0160097 C228.603726,79.3109457 228.683647,82.3731843 227.532781,83.334206 L228.811521,82.9840032 C227.796521,82.6663774 226.637663,79.0503296 226.166127,78.0974522 L223.43282,72.396476 C222.68156,70.840924 220.403804,72.201014 221.147072,73.7484218 L221.187032,73.7647103 Z" id="Path" fill="#2F2C2B"></path>
                    <path d="M64.6330832,139.392921 C60.6934944,143.592589 61.1286364,149.967086 66.2493248,153.109338 C72.2014452,156.761549 79.0782422,153.859278 83.8259518,149.7871 L81.6813236,149.239643 C83.0489126,154.894197 88.2783865,160.068788 94.7511231,158.088944 C95.8822404,157.694184 96.9338693,157.113122 97.85928,156.37158 C98.7451047,155.73413 98.8383494,155.066683 99.8329596,155.531646 C100.174857,155.689134 100.726555,156.724052 101.006289,157.031528 C103.286454,159.287258 106.548191,160.352387 109.779061,159.896301 C111.395303,159.708816 111.418614,157.234012 109.779061,157.421497 C107.872387,157.734395 105.912967,157.363646 104.269853,156.379079 C102.902264,155.524147 102.521515,154.331741 101.495823,153.296823 C100.648851,152.44189 99.9417451,151.969428 98.6052376,152.381895 C97.7271833,152.666872 97.4319084,153.409314 96.7791955,153.926773 C95.2717394,155.10418 94.0284766,156.004109 91.9770931,155.996609 C87.6101327,155.996609 85.0847553,152.246906 84.206701,148.579695 C84.0783044,148.160045 83.7322849,147.835496 83.2939815,147.723611 C82.8556782,147.611726 82.3886514,147.728729 82.0620728,148.032239 C78.876212,150.754524 74.7501338,153.07934 70.3287807,152.06692 C64.9749805,150.852016 62.706026,145.189963 66.4979773,141.147782 C67.6091434,139.970375 65.798642,138.208015 64.687476,139.392921 L64.6330832,139.392921 Z" id="Path" fill="#2F2C2B"></path>
                    <path d="M127.104489,158.792098 L128.314441,158.070424 C128.973061,157.601701 129.194815,156.595455 128.813651,155.805172 C128.412292,155.034009 127.569769,154.773453 126.90142,155.2138 L125.691469,155.92545 C125.371411,156.147115 125.138925,156.510484 125.045277,156.93543 C124.951628,157.360375 125.004509,157.811995 125.192258,158.190703 C125.593606,158.961086 126.433423,159.225207 127.104489,158.792098 L127.104489,158.792098 Z" id="Path" fill="#2F2C2B"></path>
                    <path d="M137,152 C137.552285,152 138,151.552285 138,151 C138,150.447715 137.552285,150 137,150 C136.447715,150 136,150.447715 136,151 C136,151.552285 136.447715,152 137,152 Z" id="Path" fill="#2F2C2B"></path>
                    <path d="M135,161 C135.552285,161 136,160.552285 136,160 C136,159.447715 135.552285,159 135,159 C134.447715,159 134,159.447715 134,160 C134,160.552285 134.447715,161 135,161 Z" id="Path" fill="#2F2C2B"></path>
                    <path d="M88,177 C88.5522847,177 89,176.552285 89,176 C89,175.447715 88.5522847,175 88,175 C87.4477153,175 87,175.447715 87,176 C87,176.552285 87.4477153,177 88,177 Z" id="Path" fill="#2F2C2B"></path>
                    <path d="M76.5137615,179 L78.4862385,179 C79.3222659,179 80,178.552285 80,178 C80,177.447715 79.3222659,177 78.4862385,177 L76.5137615,177 C75.6777341,177 75,177.447715 75,178 C75,178.552285 75.6777341,179 76.5137615,179 Z" id="Path" fill="#2F2C2B"></path>
                    <path d="M87,185 C87.5522847,185 88,184.552285 88,184 C88,183.447715 87.5522847,183 87,183 C86.4477153,183 86,183.447715 86,184 C86,184.552285 86.4477153,185 87,185 Z" id="Path" fill="#2F2C2B"></path>
                    <path d="M117,208 C117.564405,207.959377 118,207.523782 118,207 C118,206.476218 117.564405,206.040623 117,206 C116.435595,206.040623 116,206.476218 116,207 C116,207.523782 116.435595,207.959377 117,208 L117,208 Z" id="Path" fill="#2F2C2B"></path>
                    <path d="M575.842108,232.500411 C585.510776,236.270329 592.263298,244.836538 593.438655,254.823283 C593.616555,256.381039 596.169021,256.403399 595.991122,254.823283 C594.775146,243.738683 587.284819,234.216284 576.538235,230.092969 C574.991286,229.504152 574.349302,231.88178 575.857578,232.470597 L575.842108,232.500411 Z" id="Path" fill="#2F2C2B"></path>
                    <path d="M594.654162,225.333262 C600.00684,227.817997 603.713208,232.903013 604.463779,238.791737 C604.655074,240.395037 607.187822,240.410453 606.988875,238.791737 C606.234274,231.997742 602.050424,226.077965 595.924362,223.136432 C594.462867,222.434988 593.177363,224.631818 594.654162,225.333262 L594.654162,225.333262 Z" id="Path" fill="#2F2C2B"></path>
                    <path d="M143.428287,330.905762 C140.252276,342.037163 142.429614,353.902644 149.395503,363.424313 C150.383123,364.775072 152.75673,363.501499 151.760811,362.143022 C145.172998,353.212523 143.094445,342.056247 146.067473,331.585001 C146.515637,329.994965 143.876451,329.315726 143.428287,330.905762 L143.428287,330.905762 Z" id="Path" fill="#2F2C2B"></path>
                    <path d="M128.603281,341.914835 C125.687361,350.093367 126.789554,359.169978 131.577782,366.409992 C132.478675,367.786823 134.68431,366.503336 133.791183,365.118726 C129.355531,358.459939 128.346377,350.085042 131.072971,342.560468 C131.62438,341.004726 129.146923,340.327978 128.603281,341.875941 L128.603281,341.914835 Z" id="Path" fill="#2F2C2B"></path>
                    <path d="M129,328 C129.552285,328 130,327.552285 130,327 C130,326.447715 129.552285,326 129,326 C128.447715,326 128,326.447715 128,327 C128,327.552285 128.447715,328 129,328 Z" id="Path" fill="#2F2C2B"></path>
                </g>
            </g>
        </g>
    </g>
</svg>